<?xml version="1.0" encoding="UTF-8" standalone="no"?>
<!DOCTYPE svg PUBLIC "-//W3C//DTD SVG 1.1//EN" "http://www.w3.org/Graphics/SVG/1.1/DTD/svg11.dtd">
<svg width="100%" height="100%" viewBox="0 0 4000 4000" version="1.1" xmlns="http://www.w3.org/2000/svg" xmlns:xlink="http://www.w3.org/1999/xlink" xml:space="preserve" xmlns:serif="http://www.serif.com/" style="fill-rule:evenodd;clip-rule:evenodd;stroke-linejoin:round;stroke-miterlimit:2;">
    <g transform="matrix(8.28796,-3.43298,3.42854,8.27723,-1002.3,762.306)">
        <path d="M424.5,216.5L409.3,216.5C396.9,216.5 386.5,205.8 386.5,193.1C386.5,186.7 389.2,180.9 394,176.6L403.8,167C413.5,157.4 413.5,141.7 403.8,132.1L381.5,110C377.1,105.6 370.6,103 364,103C357.4,103 351,105.6 346.5,110L337.1,119.4C332.6,124.4 326.6,127.1 320.1,127.1C307.3,127.1 296.6,116.7 296.6,104.4L296.6,89.1C296.6,75.6 285.7,64 272.1,64L241.7,64C228.1,64 217.3,75.5 217.3,89.1L217.3,104.3C217.3,116.6 206.6,127 193.8,127C187.4,127 181.5,124.3 177.2,119.6L167.5,110C163.1,105.5 156.6,103 150,103C143.4,103 137,105.6 132.5,110L110,132C100.4,141.6 100.4,157.3 110,166.8L119.4,176.2C124.4,180.7 127.2,186.7 127.2,193.1C127.2,205.9 116.8,216.5 104.4,216.5L89.2,216.5C75.5,216.5 64,227.2 64,240.8L64,271.2C64,284.7 75.5,295.5 89.2,295.5L104.4,295.5C116.8,295.5 127.2,306.2 127.2,318.9C127.2,325.3 124.4,331.3 119.4,335.8L110,345.1C100.4,354.7 100.4,370.4 110,379.9L132.3,402.1C136.7,406.6 143.2,409.1 149.8,409.1C156.4,409.1 162.8,406.5 167.3,402.1L177,392.5C181.2,387.8 187.2,385.1 193.6,385.1C206.4,385.1 217.1,395.5 217.1,407.8L217.1,423C217.1,436.5 227.9,448.1 241.6,448.1L272,448.1C285.6,448.1 296.4,436.6 296.4,423L296.4,407.8C296.4,395.5 307.1,385.1 319.9,385.1C326.3,385.1 332.3,387.9 336.9,392.8L346.3,402.2C350.8,406.6 357.2,409.2 363.8,409.2C370.4,409.2 376.8,406.6 381.3,402.2L403.6,380C413.2,370.4 413.2,354.7 403.6,345.1L393.8,335.5C389,331.2 386.3,325.3 386.3,319C386.3,306.2 396.7,295.6 409.1,295.6L424.3,295.6C437.9,295.6 447.6,284.9 447.6,271.3L447.6,240.8C447.8,227.2 438.1,216.5 424.5,216.5ZM336.8,256C336.8,300.1 301.1,336 256.8,336C212.5,336 176.8,300.1 176.8,256C176.8,211.9 212.5,176 256.8,176C301.1,176 336.8,211.9 336.8,256Z" style="fill:white;fill-rule:nonzero;"/>
    </g>
</svg>
