<?xml version="1.0" encoding="UTF-8" standalone="no"?>
<!DOCTYPE svg PUBLIC "-//W3C//DTD SVG 1.1//EN" "http://www.w3.org/Graphics/SVG/1.1/DTD/svg11.dtd">
<svg width="100%" height="100%" viewBox="0 0 1024 1024" version="1.1" xmlns="http://www.w3.org/2000/svg" xmlns:xlink="http://www.w3.org/1999/xlink" xml:space="preserve" xmlns:serif="http://www.serif.com/" style="fill-rule:evenodd;clip-rule:evenodd;stroke-linejoin:round;stroke-miterlimit:2;">
    <g id="logo_simple">
        <g>
            <g>
                <path d="M885.301,666.257C879.029,681.4 862.526,688.938 848.428,683.098C848.428,683.098 824.848,673.047 803.498,659.65C780.837,645.43 758.587,636.237 758.587,636.237L699.846,611.906L618.976,578.408L634.862,540.055L715.733,573.552L774.474,597.884C774.474,597.884 796.707,607.116 822.786,613.085C847.355,618.708 871.137,628.275 871.137,628.275C885.234,634.114 891.574,651.113 885.301,666.257Z" style="fill:white;fill-rule:nonzero;"/>
                <path d="M138.699,357.004C132.426,372.147 138.766,389.146 152.863,394.986C152.863,394.986 176.645,404.552 201.214,410.176C227.293,416.145 249.526,425.377 249.526,425.377L308.267,449.708L389.138,483.206L405.024,444.853L324.154,411.355L265.413,387.024C265.413,387.024 243.163,377.83 220.502,363.61C199.152,350.214 175.572,340.163 175.572,340.163C161.474,334.323 144.971,341.861 138.699,357.004Z" style="fill:white;fill-rule:nonzero;"/>
            </g>
            <g>
                <path d="M138.699,666.257C132.426,651.113 138.766,634.114 152.863,628.275C152.863,628.275 176.645,618.708 201.214,613.085C227.293,607.116 249.526,597.884 249.526,597.884L308.267,573.552L389.138,540.055L405.024,578.408L324.154,611.906L265.413,636.237C265.413,636.237 243.163,645.431 220.502,659.65C199.152,673.047 175.572,683.098 175.572,683.098C161.474,688.938 144.971,681.4 138.699,666.257Z" style="fill:white;fill-rule:nonzero;"/>
                <path d="M885.301,357.004C879.029,341.861 862.526,334.323 848.428,340.163C848.428,340.163 824.848,350.214 803.498,363.61C780.837,377.83 758.587,387.024 758.587,387.024L699.846,411.355L618.976,444.853L634.862,483.206L715.733,449.708L774.474,425.377C774.474,425.377 796.707,416.145 822.786,410.176C847.355,404.552 871.137,394.986 871.137,394.986C885.234,389.146 891.574,372.147 885.301,357.004Z" style="fill:white;fill-rule:nonzero;"/>
            </g>
            <g>
                <path d="M666.626,884.931C651.483,891.204 634.484,884.865 628.645,870.767C628.645,870.767 619.078,846.986 613.455,822.417C607.485,796.338 598.253,774.104 598.253,774.104L573.922,715.363L540.424,634.493L578.778,618.606L612.275,699.477L636.607,758.218C636.607,758.218 645.8,780.467 660.02,803.129C673.416,824.478 683.468,848.058 683.468,848.058C689.307,862.156 681.77,878.659 666.626,884.931Z" style="fill:white;fill-rule:nonzero;"/>
                <path d="M357.374,138.329C342.23,144.602 334.693,161.105 340.532,175.202C340.532,175.202 350.584,198.783 363.98,220.132C378.2,242.793 387.393,265.043 387.393,265.043L411.725,323.784L445.222,404.655L483.576,388.768L450.078,307.898L425.747,249.157C425.747,249.157 416.515,226.923 410.545,200.844C404.922,176.275 395.355,152.494 395.355,152.494C389.516,138.396 372.517,132.057 357.374,138.329Z" style="fill:white;fill-rule:nonzero;"/>
            </g>
            <g>
                <path d="M357.374,884.931C342.23,878.659 334.693,862.156 340.532,848.058C340.532,848.058 350.584,824.478 363.98,803.129C378.2,780.467 387.393,758.218 387.393,758.218L411.725,699.477L445.222,618.606L483.576,634.493L450.078,715.363L425.747,774.104C425.747,774.104 416.515,796.338 410.545,822.417C404.922,846.986 395.356,870.767 395.356,870.767C389.516,884.865 372.517,891.204 357.374,884.931Z" style="fill:white;fill-rule:nonzero;"/>
                <path d="M666.626,138.329C651.483,132.057 634.484,138.396 628.644,152.494C628.644,152.494 619.078,176.275 613.455,200.844C607.485,226.923 598.253,249.157 598.253,249.157L573.922,307.898L540.424,388.768L578.778,404.655L612.275,323.784L636.607,265.043C636.607,265.043 645.8,242.793 660.02,220.132C673.416,198.783 683.468,175.202 683.468,175.202C689.307,161.104 681.77,144.602 666.626,138.329Z" style="fill:white;fill-rule:nonzero;"/>
            </g>
        </g>
    </g>
</svg>
