<?xml version="1.0" encoding="UTF-8"?>
<!--Generator: Apple Native CoreSVG 175.5-->
<!DOCTYPE svg
PUBLIC "-//W3C//DTD SVG 1.1//EN"
       "http://www.w3.org/Graphics/SVG/1.1/DTD/svg11.dtd">
<svg version="1.1" xmlns="http://www.w3.org/2000/svg" xmlns:xlink="http://www.w3.org/1999/xlink" width="3300" height="2200">
 <!--glyph: "", point size: 100.0, font version: "18.0d12e2", template writer version: "101"-->
 <style>.monochrome-0 {fill:#000000}

.SFSymbolsPreview000000 {fill:#000000;opacity:1.0}
</style>
 <g id="Notes">
  <rect height="2200" id="artboard" style="fill:white;opacity:1" width="3300" x="0" y="0"/>
  <line style="fill:none;stroke:black;opacity:1;stroke-width:0.5;" x1="263" x2="3036" y1="292" y2="292"/>
  <text style="stroke:none;fill:black;font-family:sans-serif;font-size:13;font-weight:bold;" transform="matrix(1 0 0 1 263 322)">Weight/Scale Variations</text>
  <text style="stroke:none;fill:black;font-family:sans-serif;font-size:13;text-anchor:middle;" transform="matrix(1 0 0 1 559.711 322)">Ultralight</text>
  <text style="stroke:none;fill:black;font-family:sans-serif;font-size:13;text-anchor:middle;" transform="matrix(1 0 0 1 856.422 322)">Thin</text>
  <text style="stroke:none;fill:black;font-family:sans-serif;font-size:13;text-anchor:middle;" transform="matrix(1 0 0 1 1153.13 322)">Light</text>
  <text style="stroke:none;fill:black;font-family:sans-serif;font-size:13;text-anchor:middle;" transform="matrix(1 0 0 1 1449.84 322)">Regular</text>
  <text style="stroke:none;fill:black;font-family:sans-serif;font-size:13;text-anchor:middle;" transform="matrix(1 0 0 1 1746.56 322)">Medium</text>
  <text style="stroke:none;fill:black;font-family:sans-serif;font-size:13;text-anchor:middle;" transform="matrix(1 0 0 1 2043.27 322)">Semibold</text>
  <text style="stroke:none;fill:black;font-family:sans-serif;font-size:13;text-anchor:middle;" transform="matrix(1 0 0 1 2339.98 322)">Bold</text>
  <text style="stroke:none;fill:black;font-family:sans-serif;font-size:13;text-anchor:middle;" transform="matrix(1 0 0 1 2636.69 322)">Heavy</text>
  <text style="stroke:none;fill:black;font-family:sans-serif;font-size:13;text-anchor:middle;" transform="matrix(1 0 0 1 2933.4 322)">Black</text>
  <line style="fill:none;stroke:black;opacity:1;stroke-width:0.5;" x1="263" x2="3036" y1="1903" y2="1903"/>
  <g transform="matrix(1 0 0 1 263 1933)">
   <path d="M9.24805 0.830078C13.5547 0.830078 17.1387-2.74414 17.1387-7.05078C17.1387-11.3574 13.5449-14.9316 9.23828-14.9316C4.94141-14.9316 1.36719-11.3574 1.36719-7.05078C1.36719-2.74414 4.95117 0.830078 9.24805 0.830078ZM9.24805-0.654297C5.70312-0.654297 2.87109-3.49609 2.87109-7.05078C2.87109-10.6055 5.69336-13.4473 9.23828-13.4473C12.793-13.4473 15.6445-10.6055 15.6445-7.05078C15.6445-3.49609 12.8027-0.654297 9.24805-0.654297ZM5.6543-7.05078C5.6543-6.62109 5.95703-6.32812 6.40625-6.32812L8.50586-6.32812L8.50586-4.20898C8.50586-3.76953 8.79883-3.4668 9.22852-3.4668C9.67773-3.4668 9.9707-3.76953 9.9707-4.20898L9.9707-6.32812L12.0898-6.32812C12.5293-6.32812 12.832-6.62109 12.832-7.05078C12.832-7.49023 12.5293-7.79297 12.0898-7.79297L9.9707-7.79297L9.9707-9.90234C9.9707-10.3516 9.67773-10.6543 9.22852-10.6543C8.79883-10.6543 8.50586-10.3516 8.50586-9.90234L8.50586-7.79297L6.40625-7.79297C5.95703-7.79297 5.6543-7.49023 5.6543-7.05078Z"/>
  </g>
  <g transform="matrix(1 0 0 1 281.867 1933)">
   <path d="M11.709 2.91016C17.1582 2.91016 21.6699-1.61133 21.6699-7.05078C21.6699-12.5 17.1484-17.0117 11.6992-17.0117C6.25977-17.0117 1.74805-12.5 1.74805-7.05078C1.74805-1.61133 6.26953 2.91016 11.709 2.91016ZM11.709 1.25C7.09961 1.25 3.41797-2.44141 3.41797-7.05078C3.41797-11.6602 7.08984-15.3516 11.6992-15.3516C16.3086-15.3516 20.0098-11.6602 20.0098-7.05078C20.0098-2.44141 16.3184 1.25 11.709 1.25ZM7.17773-7.05078C7.17773-6.57227 7.50977-6.25 8.00781-6.25L10.8789-6.25L10.8789-3.36914C10.8789-2.88086 11.2109-2.53906 11.6895-2.53906C12.1777-2.53906 12.5195-2.87109 12.5195-3.36914L12.5195-6.25L15.4004-6.25C15.8887-6.25 16.2305-6.57227 16.2305-7.05078C16.2305-7.53906 15.8887-7.88086 15.4004-7.88086L12.5195-7.88086L12.5195-10.752C12.5195-11.25 12.1777-11.5918 11.6895-11.5918C11.2109-11.5918 10.8789-11.25 10.8789-10.752L10.8789-7.88086L8.00781-7.88086C7.50977-7.88086 7.17773-7.53906 7.17773-7.05078Z"/>
  </g>
  <g transform="matrix(1 0 0 1 305.646 1933)">
   <path d="M14.9707 5.66406C21.9336 5.66406 27.6953-0.0976562 27.6953-7.05078C27.6953-14.0137 21.9238-19.7754 14.9609-19.7754C8.00781-19.7754 2.25586-14.0137 2.25586-7.05078C2.25586-0.0976562 8.01758 5.66406 14.9707 5.66406ZM14.9707 3.84766C8.93555 3.84766 4.08203-1.01562 4.08203-7.05078C4.08203-13.0957 8.92578-17.9492 14.9609-17.9492C21.0059-17.9492 25.8691-13.0957 25.8691-7.05078C25.8691-1.01562 21.0156 3.84766 14.9707 3.84766ZM9.19922-7.05078C9.19922-6.5332 9.57031-6.17188 10.1172-6.17188L14.0625-6.17188L14.0625-2.2168C14.0625-1.67969 14.4336-1.29883 14.9512-1.29883C15.4883-1.29883 15.8594-1.66992 15.8594-2.2168L15.8594-6.17188L19.8145-6.17188C20.3516-6.17188 20.7324-6.5332 20.7324-7.05078C20.7324-7.59766 20.3613-7.96875 19.8145-7.96875L15.8594-7.96875L15.8594-11.9141C15.8594-12.4609 15.4883-12.8418 14.9512-12.8418C14.4336-12.8418 14.0625-12.4609 14.0625-11.9141L14.0625-7.96875L10.1172-7.96875C9.57031-7.96875 9.19922-7.59766 9.19922-7.05078Z"/>
  </g>
  <text style="stroke:none;fill:black;font-family:sans-serif;font-size:13;font-weight:bold;" transform="matrix(1 0 0 1 263 1953)">Design Variations</text>
  <text style="stroke:none;fill:black;font-family:sans-serif;font-size:13;" transform="matrix(1 0 0 1 263 1971)">Symbols are supported in up to nine weights and three scales.</text>
  <text style="stroke:none;fill:black;font-family:sans-serif;font-size:13;" transform="matrix(1 0 0 1 263 1989)">For optimal layout with text and other symbols, vertically align</text>
  <text style="stroke:none;fill:black;font-family:sans-serif;font-size:13;" transform="matrix(1 0 0 1 263 2007)">symbols with the adjacent text.</text>
  <line style="fill:none;stroke:#00AEEF;stroke-width:0.5;opacity:1.0;" x1="776" x2="776" y1="1919" y2="1933"/>
  <g transform="matrix(1 0 0 1 776 1933)">
   <path d="M3.31055 0.15625C3.82812 0.15625 4.08203-0.0390625 4.26758-0.585938L5.52734-4.0332L11.2891-4.0332L12.5488-0.585938C12.7344-0.0390625 12.9883 0.15625 13.4961 0.15625C14.0137 0.15625 14.3457-0.15625 14.3457-0.644531C14.3457-0.810547 14.3164-0.966797 14.2383-1.17188L9.6582-13.3691C9.43359-13.9648 9.0332-14.2676 8.4082-14.2676C7.80273-14.2676 7.39258-13.9746 7.17773-13.3789L2.59766-1.16211C2.51953-0.957031 2.49023-0.800781 2.49023-0.634766C2.49023-0.146484 2.80273 0.15625 3.31055 0.15625ZM6.00586-5.51758L8.37891-12.0898L8.42773-12.0898L10.8008-5.51758Z"/>
  </g>
  <line style="fill:none;stroke:#00AEEF;stroke-width:0.5;opacity:1.0;" x1="793.197" x2="793.197" y1="1919" y2="1933"/>
  <text style="stroke:none;fill:black;font-family:sans-serif;font-size:13;font-weight:bold;" transform="matrix(1 0 0 1 776 1953)">Margins</text>
  <text style="stroke:none;fill:black;font-family:sans-serif;font-size:13;" transform="matrix(1 0 0 1 776 1971)">Leading and trailing margins on the left and right side of each symbol</text>
  <text style="stroke:none;fill:black;font-family:sans-serif;font-size:13;" transform="matrix(1 0 0 1 776 1989)">can be adjusted by modifying the x-location of the margin guidelines.</text>
  <text style="stroke:none;fill:black;font-family:sans-serif;font-size:13;" transform="matrix(1 0 0 1 776 2007)">Modifications are automatically applied proportionally to all</text>
  <text style="stroke:none;fill:black;font-family:sans-serif;font-size:13;" transform="matrix(1 0 0 1 776 2025)">scales and weights.</text>
  <g transform="matrix(1 0 0 1 1289 1933)">
   <path d="M2.8418 1.86523L4.54102 3.57422C5.40039 4.44336 6.38672 4.38477 7.31445 3.35938L18.0078-8.42773L17.041-9.4043L6.42578 2.27539C6.07422 2.67578 5.74219 2.77344 5.27344 2.30469L4.10156 1.14258C3.63281 0.683594 3.74023 0.341797 4.14062-0.0195312L15.6152-10.8203L14.6387-11.7871L3.04688-0.898438C2.06055 0.0195312 1.98242 0.996094 2.8418 1.86523ZM9.25781-16.3281C8.83789-15.918 8.80859-15.3418 9.04297-14.9512C9.27734-14.5898 9.73633-14.3555 10.3809-14.5215C11.8457-14.8633 13.3691-14.9219 14.7949-13.9844L14.209-12.5293C13.8672-11.6992 14.043-11.1133 14.5801-10.5664L16.875-8.25195C17.3633-7.76367 17.7734-7.74414 18.3398-7.8418L19.4043-8.03711L20.0684-7.36328L20.0293-6.80664C19.9902-6.30859 20.1172-5.92773 20.6055-5.44922L21.3672-4.70703C21.8457-4.22852 22.4609-4.19922 22.9297-4.66797L25.8398-7.58789C26.3086-8.05664 26.2891-8.65234 25.8105-9.13086L25.0391-9.89258C24.5605-10.3711 24.1895-10.5273 23.7109-10.4883L23.1348-10.4395L22.4902-11.0742L22.7344-12.1973C22.8613-12.7637 22.7051-13.2031 22.1191-13.7891L19.9219-15.9766C16.582-19.2969 12.1484-19.2188 9.25781-16.3281ZM10.752-15.957C13.1836-17.7344 16.4746-17.4316 18.7012-15.2051L21.1328-12.793C21.3672-12.5586 21.4062-12.373 21.3379-12.0312L21.0156-10.5469L22.5195-9.0625L23.5059-9.12109C23.7598-9.13086 23.8379-9.11133 24.0332-8.91602L24.6094-8.33984L22.168-5.89844L21.5918-6.47461C21.3965-6.66992 21.3672-6.74805 21.377-7.01172L21.4453-7.98828L19.9512-9.47266L18.4277-9.21875C18.1055-9.15039 17.959-9.17969 17.7148-9.41406L15.7129-11.416C15.459-11.6504 15.4297-11.8164 15.5859-12.1875L16.4648-14.2773C14.9023-15.7324 12.8711-16.3574 10.8398-15.7617C10.6836-15.7227 10.625-15.8496 10.752-15.957Z"/>
  </g>
  <text style="stroke:none;fill:black;font-family:sans-serif;font-size:13;font-weight:bold;" transform="matrix(1 0 0 1 1289 1953)">Exporting</text>
  <text style="stroke:none;fill:black;font-family:sans-serif;font-size:13;" transform="matrix(1 0 0 1 1289 1971)">Symbols should be outlined when exporting to ensure the</text>
  <text style="stroke:none;fill:black;font-family:sans-serif;font-size:13;" transform="matrix(1 0 0 1 1289 1989)">design is preserved when submitting to Xcode.</text>
  <text id="template-version" style="stroke:none;fill:black;font-family:sans-serif;font-size:13;text-anchor:end;" transform="matrix(1 0 0 1 3036 1933)">Template v.4.0</text>
  <text style="stroke:none;fill:black;font-family:sans-serif;font-size:13;text-anchor:end;" transform="matrix(1 0 0 1 3036 1951)">Requires Xcode 14 or greater</text>
  <text id="descriptive-name" style="stroke:none;fill:black;font-family:sans-serif;font-size:13;text-anchor:end;" transform="matrix(1 0 0 1 3036 1969)">Generated from nautik.helm</text>
  <text style="stroke:none;fill:black;font-family:sans-serif;font-size:13;text-anchor:end;" transform="matrix(1 0 0 1 3036 1987)">Typeset at 100 points</text>
  <text style="stroke:none;fill:black;font-family:sans-serif;font-size:13;" transform="matrix(1 0 0 1 263 726)">Small</text>
  <text style="stroke:none;fill:black;font-family:sans-serif;font-size:13;" transform="matrix(1 0 0 1 263 1156)">Medium</text>
  <text style="stroke:none;fill:black;font-family:sans-serif;font-size:13;" transform="matrix(1 0 0 1 263 1586)">Large</text>
 </g>
 <g id="Guides">
  <g id="H-reference" style="fill:#27AAE1;stroke:none;" transform="matrix(1 0 0 1 339 696)">
   <path d="M0.993654 0L3.63775 0L29.3281-67.1323L30.0303-67.1323L30.0303-70.459L28.1226-70.459ZM11.6885-24.4799L46.9815-24.4799L46.2315-26.7285L12.4385-26.7285ZM55.1196 0L57.7637 0L30.6382-70.459L29.4326-70.459L29.4326-67.1323Z"/>
  </g>
  <line id="Baseline-S" style="fill:none;stroke:#27AAE1;opacity:1;stroke-width:0.5;" x1="263" x2="3036" y1="696" y2="696"/>
  <line id="Capline-S" style="fill:none;stroke:#27AAE1;opacity:1;stroke-width:0.5;" x1="263" x2="3036" y1="625.541" y2="625.541"/>
  <g id="H-reference" style="fill:#27AAE1;stroke:none;" transform="matrix(1 0 0 1 339 1126)">
   <path d="M0.993654 0L3.63775 0L29.3281-67.1323L30.0303-67.1323L30.0303-70.459L28.1226-70.459ZM11.6885-24.4799L46.9815-24.4799L46.2315-26.7285L12.4385-26.7285ZM55.1196 0L57.7637 0L30.6382-70.459L29.4326-70.459L29.4326-67.1323Z"/>
  </g>
  <line id="Baseline-M" style="fill:none;stroke:#27AAE1;opacity:1;stroke-width:0.5;" x1="263" x2="3036" y1="1126" y2="1126"/>
  <line id="Capline-M" style="fill:none;stroke:#27AAE1;opacity:1;stroke-width:0.5;" x1="263" x2="3036" y1="1055.54" y2="1055.54"/>
  <g id="H-reference" style="fill:#27AAE1;stroke:none;" transform="matrix(1 0 0 1 339 1556)">
   <path d="M0.993654 0L3.63775 0L29.3281-67.1323L30.0303-67.1323L30.0303-70.459L28.1226-70.459ZM11.6885-24.4799L46.9815-24.4799L46.2315-26.7285L12.4385-26.7285ZM55.1196 0L57.7637 0L30.6382-70.459L29.4326-70.459L29.4326-67.1323Z"/>
  </g>
  <line id="Baseline-L" style="fill:none;stroke:#27AAE1;opacity:1;stroke-width:0.5;" x1="263" x2="3036" y1="1556" y2="1556"/>
  <line id="Capline-L" style="fill:none;stroke:#27AAE1;opacity:1;stroke-width:0.5;" x1="263" x2="3036" y1="1485.54" y2="1485.54"/>
  <line id="left-margin-Ultralight-S" style="fill:none;stroke:#00AEEF;stroke-width:0.5;opacity:1.0;" x1="508.736" x2="508.736" y1="600.785" y2="720.121"/>
  <line id="right-margin-Ultralight-S" style="fill:none;stroke:#00AEEF;stroke-width:0.5;opacity:1.0;" x1="610.687" x2="610.687" y1="600.785" y2="720.121"/>
  <line id="left-margin-Regular-S" style="fill:none;stroke:#00AEEF;stroke-width:0.5;opacity:1.0;" x1="1395.96" x2="1395.96" y1="600.785" y2="720.121"/>
  <line id="right-margin-Regular-S" style="fill:none;stroke:#00AEEF;stroke-width:0.5;opacity:1.0;" x1="1503.73" x2="1503.73" y1="600.785" y2="720.121"/>
  <line id="left-margin-Black-S" style="fill:none;stroke:#00AEEF;stroke-width:0.5;opacity:1.0;" x1="2878.57" x2="2878.57" y1="600.785" y2="720.121"/>
  <line id="right-margin-Black-S" style="fill:none;stroke:#00AEEF;stroke-width:0.5;opacity:1.0;" x1="2988.23" x2="2988.23" y1="600.785" y2="720.121"/>
 </g>
 <g id="Symbols">
  <g id="Black-S" transform="matrix(1 0 0 1 2878.57 696)">
   <path class="monochrome-0 SFSymbolsPreview000000" d="M36.5537-83.185C36.0666-83.1764 35.567-83.0748 35.0836-82.8745C33.1497-82.0736 32.1883-79.9688 32.9341-78.1685C32.9341-78.1685 34.2163-75.155 35.927-72.4287C37.7429-69.5348 38.917-66.6946 38.917-66.6946L39.4851-65.3241C33.1364-62.0831 27.9519-56.8986 24.7109-50.5499L23.3404-51.118C23.3404-51.1181 20.5002-52.2921 17.6063-54.108C14.88-55.8187 11.8665-57.1009 11.8665-57.1009C11.4164-57.2874 10.9475-57.3684 10.4842-57.3528C9.09449-57.306 7.76116-56.4018 7.16047-54.9514C6.35942-53.0176 7.16703-50.8446 8.96732-50.099C8.96732-50.099 12.006-48.8784 15.1435-48.1603C18.4738-47.398 21.3108-46.2186 21.3108-46.2186L22.6785-45.6535C21.6095-42.362 21.0239-38.8525 21.0239-35.2046C21.0239-31.5567 21.6095-28.0472 22.6785-24.7558L21.3108-24.1906C21.3108-24.1906 18.4738-23.0112 15.1435-22.249C12.006-21.5309 8.96732-20.3103 8.96732-20.3103C7.16703-19.5646 6.35942-17.3916 7.16047-15.4578C7.96142-13.5239 10.0662-12.5626 11.8665-13.3083C11.8665-13.3083 14.88-14.5905 17.6063-16.3012C20.5002-18.1171 23.3404-19.2911 23.3404-19.2912L24.7109-19.8593C27.9519-13.5106 33.1364-8.32613 39.4851-5.08511L38.917-3.71457C38.9169-3.71457 37.7429-0.874453 35.927 2.01946C34.2163 4.74581 32.9341 7.7593 32.9341 7.7593C32.1883 9.5596 33.1497 11.6644 35.0836 12.4656C37.0174 13.2668 39.1904 12.459 39.936 10.6588C39.936 10.6588 41.1566 7.61986 41.8747 4.4823C42.637 1.15197 43.8164-1.68515 43.8164-1.68506L44.3815-3.05269C47.673-1.98372 51.1826-1.39811 54.8304-1.39811C58.4782-1.39811 61.9878-1.98372 65.2792-3.05269L65.8444-1.68506C65.8444-1.68515 67.0238 1.15197 67.786 4.4823C68.5041 7.61976 69.7247 10.6588 69.7247 10.6588C70.4704 12.459 72.6434 13.2668 74.5772 12.4656C76.5111 11.6644 77.4724 9.5596 76.7267 7.7593C76.7267 7.7593 75.4445 4.74581 73.7338 2.01946C71.9179-0.874453 70.7439-3.71457 70.7438-3.71457L70.1757-5.08511C76.5244-8.32613 81.7089-13.5106 84.9499-19.8593L86.3204-19.2912C86.3204-19.2912 89.1605-18.1171 92.0545-16.3012C94.7808-14.5905 97.7943-13.3083 97.7943-13.3083C99.5946-12.5626 101.699-13.5239 102.501-15.4578C103.302-17.3916 102.494-19.5646 100.694-20.3103C100.694-20.3103 97.6549-21.5309 94.5173-22.249C91.187-23.0112 88.3498-24.1906 88.3499-24.1906L86.9823-24.7558C88.0513-28.0472 88.6369-31.5567 88.6369-35.2046C88.6369-38.8525 88.0513-42.362 86.9823-45.6535L88.3499-46.2186C88.3498-46.2186 91.187-47.398 94.5173-48.1603C97.6548-48.8784 100.694-50.099 100.694-50.099C102.494-50.8446 103.301-53.0176 102.501-54.9514C101.9-56.4018 100.566-57.306 99.1765-57.3528C98.7132-57.3684 98.2444-57.2874 97.7943-57.1009C97.7943-57.1009 94.7808-55.8187 92.0545-54.108C89.1605-52.2921 86.3204-51.118 86.3204-51.118L84.9499-50.5499C81.7089-56.8986 76.5244-62.0831 70.1757-65.3241L70.7438-66.6946C70.7439-66.6946 71.9179-69.5348 73.7338-72.4287C75.4445-75.155 76.7267-78.1685 76.7267-78.1685C77.4724-79.9688 76.5111-82.0736 74.5772-82.8745C74.0938-83.0748 73.5942-83.1764 73.1071-83.185C71.6457-83.2109 70.284-82.418 69.7247-81.0677C69.7247-81.0677 68.5041-78.029 67.786-74.8915C67.0238-71.5612 65.8444-68.7242 65.8444-68.7242L65.2792-67.3565C61.9878-68.4255 58.4782-69.0111 54.8304-69.0111C51.1826-69.0111 47.673-68.4255 44.3815-67.3565L43.8164-68.7242C43.8164-68.7241 42.637-71.5612 41.8747-74.8915C41.1566-78.029 39.936-81.0677 39.936-81.0677C39.3768-82.418 38.015-83.2109 36.5537-83.185ZM54.8304-45.4689C60.4736-45.4689 65.0479-40.8918 65.0479-35.2486C65.0479-29.6053 60.4736-25.0311 54.8304-25.0311C49.1872-25.0311 44.6129-29.6053 44.6129-35.2486C44.6129-40.8918 49.1872-45.4689 54.8304-45.4689ZM68.9311-26.4952L76.6506-23.2974C74.3655-19.1184 70.9166-15.6695 66.7376-13.3844L63.5398-21.1039C65.7289-22.4593 67.5757-24.3061 68.9311-26.4952ZM66.7376-57.0248C70.9166-54.7398 74.3655-51.2908 76.6506-47.1118L68.9311-43.914C67.5757-46.1031 65.7289-47.95 63.5398-49.3053L66.7376-57.0248ZM40.7297-26.4952C42.085-24.3061 43.9319-22.4593 46.121-21.1039L42.9232-13.3844C38.7442-15.6695 35.2952-19.1184 33.0102-23.2974L40.7297-26.4952ZM42.9232-57.0248L46.121-49.3053C43.9319-47.95 42.085-46.1031 40.7297-43.914L33.0102-47.1118C35.2952-51.2908 38.7442-54.7398 42.9232-57.0248ZM51.0174-19.0716C52.2434-18.7829 53.5164-18.6147 54.8304-18.6147C56.1444-18.6147 57.4174-18.7829 58.6433-19.0716L61.8382-11.3608C59.6148-10.7085 57.2649-10.3505 54.8304-10.3505C52.3959-10.3505 50.0459-10.7085 47.8225-11.3608L51.0174-19.0716ZM54.8304-60.0587C57.2649-60.0587 59.6148-59.7008 61.8382-59.0484L58.6433-51.3376C57.4174-51.6264 56.1444-51.7945 54.8304-51.7945C53.5164-51.7945 52.2434-51.6264 51.0174-51.3376L47.8225-59.0484C50.0459-59.7008 52.3959-60.0587 54.8304-60.0587ZM78.6742-42.2125C79.3265-39.9891 79.6845-37.6391 79.6845-35.2046C79.6845-32.7701 79.3265-30.4202 78.6742-28.1968L70.9634-31.3917C71.2521-32.6176 71.4203-33.8906 71.4203-35.2046C71.4203-36.5186 71.2521-37.7916 70.9634-39.0176L78.6742-42.2125ZM30.9866-42.2125L38.6974-39.0176C38.4086-37.7916 38.2405-36.5186 38.2405-35.2046C38.2405-33.8906 38.4086-32.6176 38.6974-31.3917L30.9866-28.1968C30.3342-30.4202 29.9763-32.7701 29.9763-35.2046C29.9763-37.6391 30.3342-39.9891 30.9866-42.2125Z"/>
  </g>
  <g id="Regular-S" transform="matrix(1 0 0 1 1395.96 696)">
   <path class="monochrome-0 SFSymbolsPreview000000" d="M35.9653-82.251C35.4876-82.2425 34.9978-82.1429 34.5237-81.9466C32.6276-81.1612 31.6849-79.0974 32.4161-77.3322C32.4161-77.3322 33.6733-74.3774 35.3507-71.7041C37.1313-68.8666 38.2826-66.0818 38.2826-66.0818L38.8396-64.7379C32.6145-61.56 27.531-56.4765 24.3531-50.2514L23.0092-50.8084C23.0092-50.8085 20.2244-51.9597 17.3869-53.7403C14.7136-55.4177 11.7588-56.6749 11.7588-56.6749C11.3175-56.8577 10.8578-56.9371 10.4035-56.9219C9.04078-56.876 7.73342-55.9894 7.14442-54.5673C6.35897-52.6711 7.15085-50.5404 8.91609-49.8093C8.91609-49.8093 11.8956-48.6124 14.972-47.9083C18.2375-47.1609 21.0192-46.0045 21.0192-46.0045L22.3602-45.4503C21.3121-42.223 20.7379-38.7818 20.7379-35.205C20.7379-31.6281 21.3121-28.1869 22.3602-24.9596L21.0192-24.4054C21.0192-24.4054 18.2375-23.249 14.972-22.5016C11.8956-21.7975 8.91609-20.6007 8.91609-20.6007C7.15085-19.8695 6.35897-17.7388 7.14442-15.8427C7.92978-13.9465 9.99355-13.0038 11.7588-13.7351C11.7588-13.7351 14.7136-14.9923 17.3869-16.6696C20.2244-18.4502 23.0092-19.6014 23.0092-19.6015L24.3531-20.1585C27.531-13.9334 32.6145-8.84989 38.8396-5.67199L38.2826-4.32815C38.2825-4.32815 37.1313-1.54333 35.3507 1.29422C33.6733 3.96749 32.4161 6.92229 32.4161 6.92229C31.6849 8.68753 32.6276 10.7513 34.5237 11.5369C36.4199 12.3226 38.5506 11.5305 39.2817 9.76536C39.2817 9.76536 40.4786 6.78556 41.1827 3.7091C41.9301 0.443628 43.0865-2.33824 43.0865-2.33815L43.6407-3.67915C46.868-2.631 50.3093-2.0568 53.886-2.0568C57.4628-2.0568 60.9041-2.631 64.1314-3.67915L64.6856-2.33815C64.6856-2.33824 65.842 0.443628 66.5894 3.7091C67.2935 6.78547 68.4903 9.76536 68.4903 9.76536C69.2215 11.5305 71.3522 12.3226 73.2483 11.5369C75.1445 10.7513 76.0872 8.68753 75.3559 6.92229C75.3559 6.92229 74.0987 3.96749 72.4214 1.29422C70.6408-1.54333 69.4896-4.32815 69.4895-4.32815L68.9325-5.67199C75.1576-8.84989 80.2411-13.9334 83.419-20.1585L84.7629-19.6015C84.7629-19.6015 87.5477-18.4502 90.3852-16.6696C93.0585-14.9923 96.0133-13.7351 96.0133-13.7351C97.7785-13.0038 99.8423-13.9465 100.628-15.8427C101.414-17.7388 100.622-19.8695 98.8564-20.6007C98.8564-20.6007 95.8766-21.7975 92.8001-22.5016C89.5346-23.249 86.7528-24.4054 86.7528-24.4054L85.4119-24.9596C86.46-28.1869 87.0342-31.6281 87.0342-35.205C87.0342-38.7818 86.46-42.223 85.4119-45.4503L86.7528-46.0045C86.7528-46.0045 89.5346-47.1609 92.8001-47.9083C95.8765-48.6124 98.8564-49.8093 98.8564-49.8093C100.622-50.5404 101.413-52.6711 100.628-54.5673C100.039-55.9894 98.7314-56.876 97.3686-56.9219C96.9143-56.9371 96.4546-56.8577 96.0133-56.6749C96.0133-56.6749 93.0585-55.4177 90.3852-53.7403C87.5477-51.9597 84.7629-50.8084 84.7629-50.8084L83.419-50.2514C80.2411-56.4765 75.1576-61.56 68.9325-64.7379L69.4895-66.0818C69.4896-66.0818 70.6408-68.8666 72.4214-71.7041C74.0987-74.3774 75.3559-77.3322 75.3559-77.3322C76.0872-79.0974 75.1445-81.1612 73.2483-81.9466C72.7743-82.1429 72.2844-82.2425 71.8068-82.251C70.3739-82.2764 69.0387-81.4989 68.4903-80.1749C68.4903-80.1749 67.2935-77.1954 66.5894-74.119C65.842-70.8535 64.6856-68.0718 64.6856-68.0718L64.1314-66.7308C60.9041-67.7789 57.4628-68.3531 53.886-68.3531C50.3093-68.3531 46.868-67.7789 43.6407-66.7308L43.0865-68.0718C43.0865-68.0717 41.9301-70.8535 41.1827-74.119C40.4786-77.1954 39.2817-80.1749 39.2817-80.1749C38.7334-81.4989 37.3981-82.2764 35.9653-82.251ZM53.886-45.2694C59.4194-45.2694 63.9046-40.7814 63.9046-35.2481C63.9046-29.7147 59.4194-25.2295 53.886-25.2295C48.3527-25.2295 43.8675-29.7147 43.8675-35.2481C43.8675-40.7814 48.3527-45.2694 53.886-45.2694ZM67.7122-26.6652L75.2813-23.5296C73.0408-19.432 69.659-16.0502 65.5614-13.8097L62.4258-21.3788C64.5723-22.7078 66.3832-24.5187 67.7122-26.6652ZM65.5614-56.6002C69.659-54.3597 73.0408-50.9779 75.2813-46.8803L67.7122-43.7447C66.3832-45.8912 64.5723-47.7021 62.4258-49.0311L65.5614-56.6002ZM40.0599-26.6652C41.3889-24.5187 43.1998-22.7078 45.3463-21.3788L42.2107-13.8097C38.1131-16.0502 34.7313-19.432 32.4908-23.5296L40.0599-26.6652ZM42.2107-56.6002L45.3463-49.0311C43.1998-47.7021 41.3889-45.8912 40.0599-43.7447L32.4908-46.8803C34.7313-50.9779 38.1131-54.3597 42.2107-56.6002ZM50.1474-19.3861C51.3494-19.103 52.5976-18.9381 53.886-18.9381C55.1745-18.9381 56.4227-19.103 57.6247-19.3861L60.7574-11.8255C58.5773-11.1858 56.2732-10.8348 53.886-10.8348C51.4989-10.8348 49.1948-11.1858 47.0147-11.8255L50.1474-19.3861ZM53.886-59.5751C56.2732-59.5751 58.5773-59.2241 60.7574-58.5845L57.6247-51.0238C56.4227-51.3069 55.1745-51.4718 53.886-51.4718C52.5976-51.4718 51.3494-51.3069 50.1474-51.0238L47.0147-58.5845C49.1948-59.2241 51.4989-59.5751 53.886-59.5751ZM77.2655-42.0763C77.9052-39.8962 78.2562-37.5921 78.2562-35.205C78.2562-32.8178 77.9052-30.5137 77.2655-28.3336L69.7049-31.4663C69.988-32.6683 70.1529-33.9165 70.1529-35.205C70.1529-36.4934 69.988-37.7416 69.7049-38.9436L77.2655-42.0763ZM30.5065-42.0763L38.0672-38.9436C37.7841-37.7416 37.6192-36.4934 37.6192-35.205C37.6192-33.9165 37.7841-32.6683 38.0672-31.4663L30.5065-28.3336C29.8669-30.5137 29.5159-32.8178 29.5159-35.205C29.5159-37.5921 29.8669-39.8962 30.5065-42.0763Z"/>
  </g>
  <g id="Ultralight-S" transform="matrix(1 0 0 1 508.736 696)">
   <path class="monochrome-0 SFSymbolsPreview000000" d="M34.1615-79.345C33.7133-79.3371 33.2537-79.2436 32.809-79.0594C31.0299-78.3225 30.1455-76.3862 30.8315-74.73C30.8315-74.73 32.0111-71.9577 33.5849-69.4495C35.2555-66.7872 36.3356-64.1744 36.3356-64.1744L36.8583-62.9135C31.0177-59.9319 26.2481-55.1623 23.2665-49.3217L22.0056-49.8444C22.0056-49.8444 19.3928-50.9245 16.7305-52.5951C14.2223-54.1689 11.45-55.3485 11.45-55.3485C11.0359-55.52 10.6046-55.5945 10.1784-55.5802C8.89986-55.5372 7.67324-54.7053 7.12062-53.371C6.38368-51.592 7.12665-49.5929 8.78287-48.9069C8.78287-48.9069 11.5784-47.784 14.4647-47.1233C17.5285-46.4221 20.1385-45.3371 20.1385-45.3371L21.3967-44.8172C20.4133-41.7892 19.8745-38.5605 19.8745-35.2046C19.8745-31.8486 20.4133-28.62 21.3967-25.5919L20.1385-25.072C20.1385-25.072 17.5285-23.987 14.4647-23.2858C11.5784-22.6251 8.78287-21.5022 8.78287-21.5022C7.12665-20.8162 6.38368-18.8172 7.12062-17.0381C7.85747-15.259 9.79379-14.3746 11.45-15.0607C11.45-15.0607 14.2223-16.2402 16.7305-17.814C19.3928-19.4846 22.0056-20.5647 22.0056-20.5648L23.2665-21.0874C26.2481-15.2468 31.0177-10.4772 36.8583-7.49557L36.3356-6.23472C36.3356-6.23472 35.2555-3.6219 33.5849-0.959593C32.0111 1.54857 30.8315 4.32088 30.8315 4.32088C30.1455 5.97709 31.0299 7.91341 32.809 8.65052C34.588 9.38763 36.5871 8.64449 37.2731 6.98836C37.2731 6.98836 38.396 4.1926 39.0567 1.30614C39.7579-1.75766 40.8429-4.36772 40.8429-4.36763L41.3628-5.62581C44.3908-4.64239 47.6196-4.10365 50.9754-4.10365C54.3313-4.10365 57.56-4.64239 60.5881-5.62581L61.108-4.36763C61.108-4.36772 62.193-1.75766 62.8942 1.30614C63.5549 4.19251 64.6778 6.98836 64.6778 6.98836C65.3638 8.64449 67.3628 9.38763 69.1419 8.65052C70.921 7.91341 71.8054 5.97709 71.1193 4.32088C71.1193 4.32088 69.9398 1.54857 68.366-0.959593C66.6954-3.6219 65.6153-6.23472 65.6152-6.23472L65.0926-7.49557C70.9332-10.4772 75.7028-15.2468 78.6844-21.0874L79.9453-20.5648C79.9453-20.5648 82.5581-19.4846 85.2204-17.814C87.7286-16.2402 90.5009-15.0607 90.5009-15.0607C92.1571-14.3746 94.0934-15.259 94.8305-17.0381C95.5676-18.8172 94.8245-20.8162 93.1684-21.5022C93.1684-21.5022 90.3726-22.6251 87.4861-23.2858C84.4223-23.987 81.8123-25.072 81.8124-25.072L80.5542-25.5919C81.5376-28.62 82.0763-31.8486 82.0763-35.2046C82.0763-38.5605 81.5376-41.7892 80.5542-44.8172L81.8124-45.3371C81.8123-45.3371 84.4223-46.4221 87.4861-47.1233C90.3725-47.784 93.1684-48.9069 93.1684-48.9069C94.8245-49.5929 95.5668-51.592 94.8305-53.371C94.2779-54.7053 93.0511-55.5372 91.7725-55.5802C91.3463-55.5945 90.915-55.52 90.5009-55.3485C90.5009-55.3485 87.7286-54.1689 85.2204-52.5951C82.5581-50.9245 79.9453-49.8444 79.9453-49.8444L78.6844-49.3217C75.7028-55.1623 70.9332-59.9319 65.0926-62.9135L65.6152-64.1744C65.6153-64.1744 66.6954-66.7872 68.366-69.4495C69.9398-71.9577 71.1193-74.73 71.1193-74.73C71.8054-76.3862 70.921-78.3225 69.1419-79.0594C68.6971-79.2436 68.2375-79.3371 67.7894-79.345C66.445-79.3688 65.1923-78.6394 64.6778-77.3971C64.6778-77.3971 63.5549-74.6016 62.8942-71.7153C62.193-68.6515 61.108-66.0415 61.108-66.0415L60.5881-64.7833C57.56-65.7667 54.3313-66.3055 50.9754-66.3055C47.6196-66.3055 44.3908-65.7667 41.3628-64.7833L40.8429-66.0415C40.8429-66.0414 39.7579-68.6515 39.0567-71.7153C38.396-74.6016 37.2731-77.3971 37.2731-77.3971C36.7586-78.6394 35.5059-79.3688 34.1615-79.345ZM50.9754-44.6474C56.167-44.6474 60.3752-40.4366 60.3752-35.245C60.3752-30.0534 56.167-25.8452 50.9754-25.8452C45.7839-25.8452 41.5757-30.0534 41.5757-35.245C41.5757-40.4366 45.7839-44.6474 50.9754-44.6474ZM63.9476-27.1922L71.0493-24.2503C68.9472-20.4058 65.7742-17.2328 61.9297-15.1307L58.9878-22.2324C61.0017-23.4792 62.7008-25.1783 63.9476-27.1922ZM61.9297-55.2785C65.7742-53.1763 68.9472-50.0033 71.0493-46.1588L63.9476-43.2169C62.7008-45.2308 61.0017-46.9299 58.9878-48.1768L61.9297-55.2785ZM38.0032-27.1922C39.2501-25.1783 40.9492-23.4792 42.9631-22.2324L40.0212-15.1307C36.1767-17.2328 33.0037-20.4058 30.9015-24.2503L38.0032-27.1922ZM40.0212-55.2785L42.9631-48.1768C40.9492-46.9299 39.2501-45.2308 38.0032-43.2169L30.9015-46.1588C33.0037-50.0033 36.1767-53.1763 40.0212-55.2785ZM47.4677-20.3627C48.5955-20.0971 49.7666-19.9424 50.9754-19.9424C52.1843-19.9424 53.3554-20.0971 54.4832-20.3627L57.4224-13.269C55.377-12.6689 53.2151-12.3396 50.9754-12.3396C48.7357-12.3396 46.5739-12.6689 44.5284-13.269L47.4677-20.3627ZM50.9754-58.0696C53.2151-58.0696 55.377-57.7402 57.4224-57.1401L54.4832-50.0464C53.3554-50.3121 52.1843-50.4667 50.9754-50.4667C49.7666-50.4667 48.5955-50.3121 47.4677-50.0464L44.5284-57.1401C46.5739-57.7402 48.7357-58.0696 50.9754-58.0696ZM72.911-41.6516C73.5111-39.6061 73.8404-37.4443 73.8404-35.2046C73.8404-32.9649 73.5111-30.803 72.911-28.7576L65.8173-31.6968C66.0829-32.8246 66.2376-33.9957 66.2376-35.2046C66.2376-36.4134 66.0829-37.5845 65.8173-38.7123L72.911-41.6516ZM29.0399-41.6516L36.1336-38.7123C35.8679-37.5845 35.7133-36.4134 35.7133-35.2046C35.7133-33.9957 35.8679-32.8246 36.1336-31.6968L29.0399-28.7576C28.4398-30.803 28.1104-32.9649 28.1104-35.2046C28.1104-37.4443 28.4398-39.6061 29.0399-41.6516Z"/>
  </g>
 </g>
</svg>
